{"title":"Jamie.Marks.Is.Dead.2014.BRRip.480p.x264.AAC-VYTO [P2PDL]","uid":12942840,"size":376753789,"categoryP":"video","categoryS":"movies","magnet":"?xt=urn:btih:feeca0b7bf07c647c2abaafe32fcc1e0ade99d6c&amp;dn=Jamie.Marks.Is.Dead.2014.BRRip.480p.x264.AAC-VYTO+%5BP2PDL%5D&amp;tr=udp%3A%2F%2Ftracker.leechers-paradise.org%3A6969&amp;tr=udp%3A%2F%2Fzer0day.ch%3A1337&amp;tr=udp%3A%2F%2Fopen.demonii.com%3A1337&amp;tr=udp%3A%2F%2Ftracker.coppersurfer.tk%3A6969&amp;tr=udp%3A%2F%2Fexodus.desync.com%3A6969","seeders":0,"leechers":1,"uploader":"VYTOP2PDL","files":6,"time":1449643960,"description":"____    ____ ____    ____ .___________.  ______   \r\n     /   /      /   / |           | /  __    \r\n    /   /      /   /  `---|  |----`|  |  |  | \r\n        /     _    _/       |  |     |  |  |  | \r\n       /        |  |         |  |     |  `--'  | \r\n    __/         |__|         |__|      ______/  \r\n                                                  \r\nPresenting Small Encodes with quality for years!\r\n                                                                                                   \r\n                                                                                                   \r\n\r\nJamie.Marks.Is.Dead.2014.BRRip.480p.x264.AAC-VYTO\r\n\r\n\r\nGenre: Drama   \nhttp://www.imdb.com/title/tt2381046/\r\n\r\n\r\nGeneral\r\nFormat                         : MPEG-4\r\nFile size                      : 352 MiB\r\nDuration                       : 1h 41mn\r\nOverall bit rate               : 484 Kbps\r\n\r\nVideo\r\nFormat                         : AVC\r\nBit rate                       : 449 Kbps\r\nWidth                          : 720 pixels\r\nHeight                         : 304 pixels\r\nDisplay aspect ratio           : 2.35:1\r\nFrame rate mode                : Constant\r\nFrame rate                     : 23.976 fps\r\nBit depth                      : 8 bits\r\nStream size                    : 326 MiB (93%)\r\nWriting library                : x264 \r\n\r\nAudio\r\nFormat                         : AAC\r\nBit rate mode                  : Variable\r\nBit rate                       : 32.0 Kbps\r\nChannel(s)                     : 2 channels\r\nChannel positions              : Front: L R\r\nSampling rate                  : 48.0 KHz\r\nStream size                    : 23.2 MiB (7%)\r\nLanguage                       : English\r\n\r\nSubtitle                       : N/a\r\n\r\nScreen shots:\r\n \nhttp://ititli.com/FP \nhttp://ititli.com/Ff \nhttp://ititli.com/Fu \nhttp://ititli.com/Fv \nhttp://ititli.com/FR \nhttp://ititli.com/Fy \nhttp://ititli.com/F3 \nhttp://ititli.com/FE \nhttp://ititli.com/FQ\r\n\r\n----------------------------------------------------------------------------------------------------\r\n\r\n\r\nEncoder Notes: Looking For Early Access To Anything You Can Provide WEBDL, DVDScr, DVDR, BluRay,\r\nDirect Audio, Music Releases and Seedboxes. If You Got anything to offer please contact us.\r\n\r\nSupport us by donating BC - 1FgwdzPsd1y25Gea8wP1qni35uGCtmkRCD\r\n\r\nSend some love!\r\nFind us and join us!","torrent":{"xt":"urn:btih:feeca0b7bf07c647c2abaafe32fcc1e0ade99d6c","amp;dn":"Jamie.Marks.Is.Dead.2014.BRRip.480p.x264.AAC-VYTO+%5BP2PDL%5D","amp;tr":["udp%3A%2F%2Ftracker.leechers-paradise.org%3A6969","udp%3A%2F%2Fzer0day.ch%3A1337","udp%3A%2F%2Fopen.demonii.com%3A1337","udp%3A%2F%2Ftracker.coppersurfer.tk%3A6969","udp%3A%2F%2Fexodus.desync.com%3A6969"],"infoHash":"feeca0b7bf07c647c2abaafe32fcc1e0ade99d6c","infoHashBuffer":{"type":"Buffer","data":[254,236,160,183,191,7,198,71,194,171,170,254,50,252,193,224,173,233,157,108]},"announce":[],"urlList":[]}}